<svg width="118" height="29" xmlns="http://www.w3.org/2000/svg">

 <g>
  <title>background</title>
  <rect fill="none" id="canvas_background" height="31" width="120" y="-1" x="-1"/>
 </g>
 <g>
  <title>Layer 1</title>
  <path id="svg_1" d="m11.528,24.8l-0.504,-1.82s-2.156,2.1 -4.536,2.1c-2.716,0 -4.368,-1.596 -4.368,-4.396c0,-3.304 2.492,-4.62 6.748,-4.62l1.96,0l0,-1.54c0,-1.428 -0.756,-2.044 -2.156,-2.044c-1.428,0 -2.464,0.42 -2.464,0.42l-0.42,1.764l-2.52,0l-0.196,-4.144s3.388,-1.12 6.076,-1.12c4.256,0 5.88,1.484 5.88,5.544l0,6.916l2.1,0.504l0,2.24l-5.6,0.196zm-0.7,-6.356l-1.596,0c-2.184,0 -3.052,0.56 -3.052,1.82c0,1.064 0.588,1.68 1.652,1.68c1.484,0 2.996,-1.624 2.996,-1.624l0,-1.876zm20.28628,6.356l-0.252,-1.484c-0.392,0.392 -1.82,1.764 -4.228,1.764c-3.92,0 -5.74,-2.856 -5.74,-7.476c0,-5.264 2.52,-8.204 7.644,-8.204c0.672,0 1.484,0.14 2.1,0.28l0,-3.556l-2.24,-0.56l0,-2.24l6.44,-0.224l0,18.704l2.24,0.56l0,2.24l-5.964,0.196zm-0.476,-4.676l0,-6.944c-0.532,-0.252 -1.372,-0.42 -2.184,-0.42c-2.38,0 -3.22,1.82 -3.22,4.62c0,2.828 0.784,4.34 2.688,4.34c1.792,0 2.716,-1.596 2.716,-1.596zm20.28628,4.676l-0.252,-1.484c-0.392,0.392 -1.82,1.764 -4.228,1.764c-3.92,0 -5.74,-2.856 -5.74,-7.476c0,-5.264 2.52,-8.204 7.644,-8.204c0.672,0 1.484,0.14 2.1,0.28l0,-3.556l-2.24,-0.56l0,-2.24l6.44,-0.224l0,18.704l2.24,0.56l0,2.24l-5.964,0.196zm-0.476,-4.676l0,-6.944c-0.532,-0.252 -1.372,-0.42 -2.184,-0.42c-2.38,0 -3.22,1.82 -3.22,4.62c0,2.828 0.784,4.34 2.688,4.34c1.792,0 2.716,-1.596 2.716,-1.596zm23.59028,-1.96l-9.296,0c0.168,2.24 1.456,3.556 3.388,3.556c2.324,0 4.704,-1.316 4.704,-1.316l1.204,2.324s-2.8,2.352 -6.384,2.352c-4.816,0 -7.28,-2.8 -7.28,-7.56c0,-4.9 2.772,-8.12 7.476,-8.12c4.172,0 6.356,2.576 6.356,6.58c0,1.064 -0.168,2.1 -0.168,2.184zm-9.24,-2.604l5.068,0c0,-1.596 -0.672,-2.8 -2.296,-2.8c-1.568,0 -2.548,1.148 -2.772,2.8zm14.15428,7.056c0,-1.596 1.148,-2.52 2.408,-2.52c1.54,0 2.352,0.924 2.352,2.52c0,1.624 -1.148,2.548 -2.408,2.548c-1.54,0 -2.352,-0.924 -2.352,-2.548zm19.44628,-1.4l1.008,2.128c-1.372,1.008 -2.94,1.736 -4.76,1.736c-3.22,0 -4.144,-2.24 -4.144,-5.46l0,-6.44l-2.604,0l0,-2.716l2.604,-0.364l0,-3.864l4.2,-0.756l0,4.62l3.92,0l0,3.08l-3.92,0l0,6.16c0,1.792 0.308,2.52 1.484,2.52c0.756,0 1.848,-0.448 2.212,-0.644zm11.77428,-11.816c4.536,0 7.056,2.744 7.056,7.56c0,5.04 -2.94,8.12 -7.476,8.12c-4.564,0 -7.14,-2.38 -7.14,-7.7c0,-5.04 2.996,-7.98 7.56,-7.98zm-0.14,3.36c-2.044,0 -3.08,1.12 -3.08,4.48c0,3.08 0.896,4.48 2.94,4.48c2.016,0 2.996,-1.26 2.996,-4.62c0,-2.856 -0.84,-4.34 -2.856,-4.34z" fill="#fff"/>
  <path id="svg_2" fill="#"/>
  <path id="svg_3" d="m11.528,24.8l-0.504,-1.82s-2.156,2.1 -4.536,2.1c-2.716,0 -4.368,-1.596 -4.368,-4.396c0,-3.304 2.492,-4.62 6.748,-4.62l1.96,0l0,-1.54c0,-1.428 -0.756,-2.044 -2.156,-2.044c-1.428,0 -2.464,0.42 -2.464,0.42l-0.42,1.764l-2.52,0l-0.196,-4.144s3.388,-1.12 6.076,-1.12c4.256,0 5.88,1.484 5.88,5.544l0,6.916l2.1,0.504l0,2.24l-5.6,0.196zm-0.7,-6.356l-1.596,0c-2.184,0 -3.052,0.56 -3.052,1.82c0,1.064 0.588,1.68 1.652,1.68c1.484,0 2.996,-1.624 2.996,-1.624l0,-1.876zm20.28628,6.356l-0.252,-1.484c-0.392,0.392 -1.82,1.764 -4.228,1.764c-3.92,0 -5.74,-2.856 -5.74,-7.476c0,-5.264 2.52,-8.204 7.644,-8.204c0.672,0 1.484,0.14 2.1,0.28l0,-3.556l-2.24,-0.56l0,-2.24l6.44,-0.224l0,18.704l2.24,0.56l0,2.24l-5.964,0.196zm-0.476,-4.676l0,-6.944c-0.532,-0.252 -1.372,-0.42 -2.184,-0.42c-2.38,0 -3.22,1.82 -3.22,4.62c0,2.828 0.784,4.34 2.688,4.34c1.792,0 2.716,-1.596 2.716,-1.596zm20.28628,4.676l-0.252,-1.484c-0.392,0.392 -1.82,1.764 -4.228,1.764c-3.92,0 -5.74,-2.856 -5.74,-7.476c0,-5.264 2.52,-8.204 7.644,-8.204c0.672,0 1.484,0.14 2.1,0.28l0,-3.556l-2.24,-0.56l0,-2.24l6.44,-0.224l0,18.704l2.24,0.56l0,2.24l-5.964,0.196zm-0.476,-4.676l0,-6.944c-0.532,-0.252 -1.372,-0.42 -2.184,-0.42c-2.38,0 -3.22,1.82 -3.22,4.62c0,2.828 0.784,4.34 2.688,4.34c1.792,0 2.716,-1.596 2.716,-1.596zm23.59028,-1.96l-9.296,0c0.168,2.24 1.456,3.556 3.388,3.556c2.324,0 4.704,-1.316 4.704,-1.316l1.204,2.324s-2.8,2.352 -6.384,2.352c-4.816,0 -7.28,-2.8 -7.28,-7.56c0,-4.9 2.772,-8.12 7.476,-8.12c4.172,0 6.356,2.576 6.356,6.58c0,1.064 -0.168,2.1 -0.168,2.184zm-9.24,-2.604l5.068,0c0,-1.596 -0.672,-2.8 -2.296,-2.8c-1.568,0 -2.548,1.148 -2.772,2.8zm14.15428,7.056c0,-1.596 1.148,-2.52 2.408,-2.52c1.54,0 2.352,0.924 2.352,2.52c0,1.624 -1.148,2.548 -2.408,2.548c-1.54,0 -2.352,-0.924 -2.352,-2.548zm19.44628,-1.4l1.008,2.128c-1.372,1.008 -2.94,1.736 -4.76,1.736c-3.22,0 -4.144,-2.24 -4.144,-5.46l0,-6.44l-2.604,0l0,-2.716l2.604,-0.364l0,-3.864l4.2,-0.756l0,4.62l3.92,0l0,3.08l-3.92,0l0,6.16c0,1.792 0.308,2.52 1.484,2.52c0.756,0 1.848,-0.448 2.212,-0.644zm11.77428,-11.816c4.536,0 7.056,2.744 7.056,7.56c0,5.04 -2.94,8.12 -7.476,8.12c-4.564,0 -7.14,-2.38 -7.14,-7.7c0,-5.04 2.996,-7.98 7.56,-7.98zm-0.14,3.36c-2.044,0 -3.08,1.12 -3.08,4.48c0,3.08 0.896,4.48 2.94,4.48c2.016,0 2.996,-1.26 2.996,-4.62c0,-2.856 -0.84,-4.34 -2.856,-4.34z" fill="#fff"/>
 </g>
</svg>